<mxfile host="Electron" modified="2024-04-06T16:13:10.309Z" agent="Mozilla/5.0 (Windows NT 10.0; Win64; x64) AppleWebKit/537.36 (KHTML, like Gecko) draw.io/24.1.0 Chrome/120.0.6099.109 Electron/28.1.0 Safari/537.36" etag="58YBAUrrq9DYBdixp-ji" version="24.1.0" type="device">
  <diagram id="C5RBs43oDa-KdzZeNtuy" name="Page-1">
    <mxGraphModel dx="1098" dy="820" grid="1" gridSize="10" guides="1" tooltips="1" connect="1" arrows="1" fold="1" page="1" pageScale="1" pageWidth="827" pageHeight="1169" math="0" shadow="0">
      <root>
        <mxCell id="0" />
        <mxCell id="1" parent="0" />
        <mxCell id="2" value="&lt;&lt;interface&gt;&gt;&amp;#10;&lt;b&gt;Observer&lt;/b&gt;&amp;#10;+update(): void" style="rounded=0;whiteSpace=wrap;html=1;strokeColor=#000000;dashed=1;" parent="1" vertex="1">
          <mxGeometry x="50" y="50" width="180" height="80" as="geometry" />
        </mxCell>
        <mxCell id="3" value="&lt;&lt;interface&gt;&gt;&amp;#10;&lt;b&gt;Subject&lt;/b&gt;&amp;#10;+attach(observer: Observer): void&amp;#10;+detach(observer: Observer): void&amp;#10;+notify(): void" style="rounded=0;whiteSpace=wrap;html=1;strokeColor=#000000;dashed=1;" parent="1" vertex="1">
          <mxGeometry x="250" y="50" width="200" height="100" as="geometry" />
        </mxCell>
        <mxCell id="4" value="&lt;b&gt;ConcreteSubject&lt;/b&gt;&amp;#10;-state: int&amp;#10;+getState(): int&amp;#10;+setState(state: int): void" style="rounded=0;whiteSpace=wrap;html=1;strokeColor=#000000;" parent="1" vertex="1">
          <mxGeometry x="250" y="200" width="200" height="120" as="geometry" />
        </mxCell>
        <mxCell id="5" value="&lt;b&gt;ConcreteObserverA&lt;/b&gt;&amp;#10;-observerState: int&amp;#10;+update(): void" style="rounded=0;whiteSpace=wrap;html=1;strokeColor=#000000;" parent="1" vertex="1">
          <mxGeometry x="50" y="200" width="180" height="120" as="geometry" />
        </mxCell>
        <mxCell id="6" value="&lt;b&gt;ConcreteObserverB&lt;/b&gt;&amp;#10;-observerState: int&amp;#10;+update(): void" style="rounded=0;whiteSpace=wrap;html=1;strokeColor=#000000;" parent="1" vertex="1">
          <mxGeometry x="50" y="350" width="180" height="120" as="geometry" />
        </mxCell>
        <mxCell id="7" value="" style="edgeStyle=orthogonalEdgeStyle;endArrow=block;endFill=1;endSize=12;html=1;strokeColor=#000000;dashed=1;" parent="1" source="5" target="2" edge="1">
          <mxGeometry width="50" height="50" relative="1" as="geometry" />
        </mxCell>
        <mxCell id="8" value="" style="edgeStyle=orthogonalEdgeStyle;endArrow=block;endFill=1;endSize=12;html=1;strokeColor=#000000;dashed=1;" parent="1" source="6" target="2" edge="1">
          <mxGeometry width="50" height="50" relative="1" as="geometry" />
        </mxCell>
        <mxCell id="9" value="" style="edgeStyle=orthogonalEdgeStyle;endArrow=block;endFill=1;endSize=12;html=1;strokeColor=#000000;dashed=1;" parent="1" source="4" target="3" edge="1">
          <mxGeometry width="50" height="50" relative="1" as="geometry" />
        </mxCell>
      </root>
    </mxGraphModel>
  </diagram>
</mxfile>
